<svg 
 xmlns="http://www.w3.org/2000/svg"
 xmlns:xlink="http://www.w3.org/1999/xlink"
 width="12px" height="20px">
<path fill-rule="evenodd"  fill="rgb(153, 153, 153)"
 d="M9.661,16.713 C7.956,16.713 7.031,15.380 7.031,14.353 C7.031,13.898 7.031,11.405 7.031,8.358 L11.169,8.358 L11.169,4.993 L7.031,4.993 C7.031,2.367 7.031,-0.002 7.031,-0.002 C7.031,-0.002 5.503,-0.002 4.138,-0.002 C4.138,4.339 0.387,5.144 0.387,5.144 L0.387,8.321 L2.878,8.321 C2.878,8.321 2.878,12.982 2.878,15.455 C2.878,17.932 5.152,19.987 7.918,19.987 C10.684,19.987 12.007,18.882 12.007,18.882 L12.007,15.609 C12.007,15.609 11.367,16.713 9.661,16.713 Z"/>
</svg>