<svg 
 xmlns="http://www.w3.org/2000/svg"
 xmlns:xlink="http://www.w3.org/1999/xlink"
 width="21px" height="18px">
<path fill-rule="evenodd"  fill="rgb(153, 153, 153)"
 d="M20.542,3.058 C20.207,3.244 19.201,3.615 18.265,3.708 C18.866,3.381 19.756,2.316 19.975,1.467 C19.397,1.840 18.070,2.381 17.415,2.381 C17.415,2.381 17.415,2.381 17.415,2.382 C16.668,1.598 15.616,0.977 14.449,0.977 C12.182,0.977 10.526,2.954 10.526,5.230 C10.526,5.546 10.563,5.855 10.630,6.151 L10.629,6.151 C7.554,6.069 4.011,4.364 1.986,1.715 C0.742,3.879 1.819,6.442 3.231,7.320 C2.748,7.356 1.857,7.265 1.439,6.853 C1.411,8.290 2.098,10.193 4.605,10.884 C4.123,11.144 3.268,11.070 2.896,11.013 C3.026,12.227 4.717,13.812 6.565,13.812 C5.906,14.577 3.428,15.966 0.646,15.524 C2.535,16.679 4.737,17.346 7.067,17.346 C13.689,17.346 19.116,11.957 18.839,5.305 C18.839,5.298 18.839,5.291 18.838,5.281 C18.839,5.265 18.839,5.248 18.839,5.230 C18.839,5.211 18.838,5.190 18.837,5.169 C19.440,4.755 19.964,4.022 20.542,3.058 Z"/>
</svg>